HIERARCHY
ROOT Hips
{
	OFFSET 0.000000 103.266502 0.000000
	CHANNELS 6 Xposition Yposition Zposition Xrotation Yrotation Zrotation 
	JOINT Spine
	{
		OFFSET -0.002400 12.777504 0.315300
		CHANNELS 3 Xrotation Yrotation Zrotation
		JOINT Spine1
		{
			OFFSET -0.002067 5.816869 0.032633
			CHANNELS 3 Xrotation Yrotation Zrotation
			JOINT Spine1_split
			{
				OFFSET -0.002067 5.816869 0.032633
				CHANNELS 3 Xrotation Yrotation Zrotation
				JOINT Spine2
				{
					OFFSET -0.002067 5.816869 0.032633
					CHANNELS 3 Xrotation Yrotation Zrotation
					JOINT Neck
					{
						OFFSET -0.003700 21.199493 -0.826900
						CHANNELS 3 Xrotation Yrotation Zrotation
						JOINT Head
						{
							OFFSET 0.000000 20.442200 4.834800
							CHANNELS 3 Xrotation Yrotation Zrotation
							JOINT HeadTop_End
							{
								OFFSET 0.000000 34.668396 4.968400
								CHANNELS 3 Xrotation Yrotation Zrotation
								End Site
								{
									OFFSET 0.000000 0.000000 0.000000
								}
							}
						}
					}
					JOINT LeftShoulder
					{
						OFFSET 3.288150 8.794197 -1.372250
						CHANNELS 3 Xrotation Yrotation Zrotation
						JOINT LeftShoulder_split
						{
							OFFSET 3.288150 8.794197 -1.372250
							CHANNELS 3 Xrotation Yrotation Zrotation
							JOINT LeftArm
							{
								OFFSET 11.953299 -2.279007 -0.146200
								CHANNELS 3 Xrotation Yrotation Zrotation
								JOINT LeftForeArm
								{
									OFFSET 18.448900 0.000000 0.000000
									CHANNELS 3 Xrotation Yrotation Zrotation
									JOINT LeftHand
									{
										OFFSET 29.527798 0.000000 0.000000
										CHANNELS 3 Xrotation Yrotation Zrotation
										JOINT LeftHandThumb1
										{
											OFFSET 10.739754 -2.369614 9.225399
											CHANNELS 3 Xrotation Yrotation Zrotation
											JOINT LeftHandThumb2
											{
												OFFSET 4.926170 -2.844131 2.844125
												CHANNELS 3 Xrotation Yrotation Zrotation
												JOINT LeftHandThumb3
												{
													OFFSET 4.614891 -2.664413 2.664409
													CHANNELS 3 Xrotation Yrotation Zrotation
													JOINT LeftHandThumb4
													{
														OFFSET 4.432465 -2.559082 2.559083
														CHANNELS 3 Xrotation Yrotation Zrotation
														End Site
														{
															OFFSET 0.000000 0.000000 0.000000
														}
													}
												}
											}
										}
										JOINT LeftHandIndex1
										{
											OFFSET 26.467674 0.187653 6.405298
											CHANNELS 3 Xrotation Yrotation Zrotation
											JOINT LeftHandIndex2
											{
												OFFSET 8.792900 0.000000 0.000000
												CHANNELS 3 Xrotation Yrotation Zrotation
												JOINT LeftHandIndex3
												{
													OFFSET 10.075203 0.000000 0.000000
													CHANNELS 3 Xrotation Yrotation Zrotation
													End Site
													{
														OFFSET 0.000000 0.000000 0.000000
													}
												}
											}
										}
										JOINT LeftHandMiddle1
										{
											OFFSET 25.764404 0.000000 0.000000
											CHANNELS 3 Xrotation Yrotation Zrotation
											JOINT LeftHandMiddle2
											{
												OFFSET 9.393974 0.000000 0.000000
												CHANNELS 3 Xrotation Yrotation Zrotation
												JOINT LeftHandMiddle3
												{
													OFFSET 10.771950 0.000000 0.000000
													CHANNELS 3 Xrotation Yrotation Zrotation
													End Site
													{
														OFFSET 0.000000 0.000000 0.000000
													}
												}
											}
										}
										JOINT LeftHandRing1
										{
											OFFSET 24.660927 0.144547 -6.225808
											CHANNELS 3 Xrotation Yrotation Zrotation
											JOINT LeftHandRing2
											{
												OFFSET 9.393799 0.000000 0.000000
												CHANNELS 3 Xrotation Yrotation Zrotation
												JOINT LeftHandRing3
												{
													OFFSET 9.928497 0.000000 0.000000
													CHANNELS 3 Xrotation Yrotation Zrotation
													End Site
													{
														OFFSET 0.000000 0.000000 0.000000
													}
												}
											}
										}
										JOINT LeftHandPinky1
										{
											OFFSET 23.655350 0.125290 -12.815412
											CHANNELS 3 Xrotation Yrotation Zrotation
											JOINT LeftHandPinky2
											{
												OFFSET 8.425102 0.000000 0.000000
												CHANNELS 3 Xrotation Yrotation Zrotation
												JOINT LeftHandPinky3
												{
													OFFSET 8.147003 0.000000 0.000000
													CHANNELS 3 Xrotation Yrotation Zrotation
													End Site
													{
														OFFSET 0.000000 0.000000 0.000000
													}
												}
											}
										}
									}
								}
							}
						}
					}
					JOINT RightShoulder
					{
						OFFSET -3.249400 8.794197 -1.372250
						CHANNELS 3 Xrotation Yrotation Zrotation
						JOINT RightShoulder_split
						{
							OFFSET -3.249400 8.794197 -1.372250
							CHANNELS 3 Xrotation Yrotation Zrotation
							JOINT RightArm
							{
								OFFSET -11.953299 -2.279007 -0.146200
								CHANNELS 3 Xrotation Yrotation Zrotation
								JOINT RightForeArm
								{
									OFFSET -18.448900 0.000000 0.000000
									CHANNELS 3 Xrotation Yrotation Zrotation
									JOINT RightHand
									{
										OFFSET -29.527802 0.000000 0.000000
										CHANNELS 3 Xrotation Yrotation Zrotation
										JOINT RightHandThumb1
										{
											OFFSET -10.739754 -2.369614 9.225399
											CHANNELS 3 Xrotation Yrotation Zrotation
											JOINT RightHandThumb2
											{
												OFFSET -4.926170 -2.844131 2.844125
												CHANNELS 3 Xrotation Yrotation Zrotation
												JOINT RightHandThumb3
												{
													OFFSET -4.614891 -2.664413 2.664409
													CHANNELS 3 Xrotation Yrotation Zrotation
													JOINT RightHandThumb4
													{
														OFFSET -4.432465 -2.559082 2.559083
														CHANNELS 3 Xrotation Yrotation Zrotation
														End Site
														{
															OFFSET 0.000000 0.000000 0.000000
														}
													}
												}
											}
										}
										JOINT RightHandIndex1
										{
											OFFSET -26.467674 0.187653 6.405298
											CHANNELS 3 Xrotation Yrotation Zrotation
											JOINT RightHandIndex2
											{
												OFFSET -8.792900 0.000000 0.000000
												CHANNELS 3 Xrotation Yrotation Zrotation
												JOINT RightHandIndex3
												{
													OFFSET -10.075203 0.000000 0.000000
													CHANNELS 3 Xrotation Yrotation Zrotation
													End Site
													{
														OFFSET 0.000000 0.000000 0.000000
													}
												}
											}
										}
										JOINT RightHandMiddle1
										{
											OFFSET -25.764404 0.000000 0.000000
											CHANNELS 3 Xrotation Yrotation Zrotation
											JOINT RightHandMiddle2
											{
												OFFSET -9.393974 0.000000 0.000000
												CHANNELS 3 Xrotation Yrotation Zrotation
												JOINT RightHandMiddle3
												{
													OFFSET -10.771950 0.000000 0.000000
													CHANNELS 3 Xrotation Yrotation Zrotation
													End Site
													{
														OFFSET 0.000000 0.000000 0.000000
													}
												}
											}
										}
										JOINT RightHandRing1
										{
											OFFSET -24.660927 0.144547 -6.225808
											CHANNELS 3 Xrotation Yrotation Zrotation
											JOINT RightHandRing2
											{
												OFFSET -9.393799 0.000000 0.000000
												CHANNELS 3 Xrotation Yrotation Zrotation
												JOINT RightHandRing3
												{
													OFFSET -9.928497 0.000000 0.000000
													CHANNELS 3 Xrotation Yrotation Zrotation
													End Site
													{
														OFFSET 0.000000 0.000000 0.000000
													}
												}
											}
										}
										JOINT RightHandPinky1
										{
											OFFSET -23.655350 0.125290 -12.815412
											CHANNELS 3 Xrotation Yrotation Zrotation
											JOINT RightHandPinky2
											{
												OFFSET -8.425102 0.000000 0.000000
												CHANNELS 3 Xrotation Yrotation Zrotation
												JOINT RightHandPinky3
												{
													OFFSET -8.147003 0.000000 0.000000
													CHANNELS 3 Xrotation Yrotation Zrotation
													End Site
													{
														OFFSET 0.000000 0.000000 0.000000
													}
												}
											}
										}
									}
								}
							}
						}
					}
				}
			}
		}
	}
	JOINT LeftUpLeg
	{
		OFFSET 11.394100 -6.187798 -0.413800
		CHANNELS 3 Xrotation Yrotation Zrotation
		JOINT LeftLeg
		{
			OFFSET 0.430247 -32.302673 3.732800
			CHANNELS 3 Xrotation Yrotation Zrotation
			JOINT LeftFoot
			{
				OFFSET -0.430247 -48.264931 -6.423300
				CHANNELS 3 Xrotation Yrotation Zrotation
				JOINT LeftToeBase
				{
					OFFSET 4.230900 -16.068199 23.438400
					CHANNELS 3 Xrotation Yrotation Zrotation
					JOINT LeftToe_End
					{
						OFFSET 4.510700 0.695400 19.974600
						CHANNELS 3 Xrotation Yrotation Zrotation
						End Site
						{
							OFFSET 0.000000 0.000000 0.000000
						}
					}
				}
			}
		}
	}
	JOINT RightUpLeg
	{
		OFFSET -11.333700 -6.187798 -0.413800
		CHANNELS 3 Xrotation Yrotation Zrotation
		JOINT RightLeg
		{
			OFFSET -0.430392 -32.302628 3.733000
			CHANNELS 3 Xrotation Yrotation Zrotation
			JOINT RightFoot
			{
				OFFSET 0.430392 -48.264973 -6.423500
				CHANNELS 3 Xrotation Yrotation Zrotation
				JOINT RightToeBase
				{
					OFFSET -4.230900 -16.068199 23.438400
					CHANNELS 3 Xrotation Yrotation Zrotation
					JOINT RightToe_End
					{
						OFFSET -4.510700 0.695400 19.974600
						CHANNELS 3 Xrotation Yrotation Zrotation
						End Site
						{
							OFFSET 0.000000 0.000000 0.000000
						}
					}
				}
			}
		}
	}
}
MOTION
Frames: 6
Frame Time: 0.016667
-237.035431 100.937553 -11.377760 -0.249662 -1.912850 0.222041 1.359052 0.270647 0.433185 1.526172 0.604860 0.276834 0.000000 0.000000 0.000000 1.528456 0.599782 0.275481 2.397565 -0.807861 -0.311582 -5.722447 -4.753666 1.062652 0.000000 -0.000000 -0.000000 0.680080 -3.439145 -11.860526 0.000000 0.000000 0.000000 7.201838 -16.916700 -65.380251 0.000002 -20.680367 -0.000017 -11.810937 -9.230385 8.456931 -4.796955 3.051757 4.543923 15.168957 25.440088 5.455597 -14.255086 -9.285803 7.920788 -0.000000 -0.000001 -0.000002 -1.456309 0.275387 -37.796710 1.499741 3.915405 -41.904570 0.000001 0.000001 -0.000001 -0.989835 3.521578 -42.884166 1.912717 4.330589 -47.643745 0.000002 -0.000002 -0.000000 -1.278576 4.236141 -52.701292 2.281777 4.639290 -52.360705 -0.000000 0.000001 -0.000000 0.169522 5.868146 -58.032409 2.290175 4.645735 -52.464428 -0.000001 0.000002 -0.000000 0.475740 8.188372 13.746940 0.000000 0.000000 0.000000 13.305191 7.816369 61.653317 -0.000007 31.239059 0.000021 -9.883371 4.315939 -8.466877 -3.629457 2.305970 -13.175367 14.001429 -30.265405 1.170805 -9.731815 6.667336 -15.553700 0.000000 0.000000 -0.000002 -0.431370 6.502031 20.288761 1.739988 -3.631897 51.185277 -0.000001 -0.000001 -0.000003 -1.795541 -0.980957 34.164770 1.353503 -3.284344 44.784598 0.000001 -0.000000 -0.000000 -1.346449 -2.158752 38.580464 1.794970 -3.675362 52.048172 0.000002 0.000001 -0.000000 -0.503799 -3.831124 44.436770 1.111617 -3.021583 40.388876 0.000001 -0.000000 0.000001 -12.738679 15.320765 10.389179 13.830611 -9.797986 -0.109692 -4.262494 -11.337162 -7.007205 1.635544 -0.000000 -0.000001 0.000000 0.000000 -0.000000 -7.094993 -8.671548 -9.134764 15.184371 -0.231734 3.437242 -8.264898 -2.316662 4.334672 -0.140963 0.000002 0.000001 -0.000000 0.000000 0.000000 
-237.015396 100.914062 -11.363015 -0.220919 -1.909097 0.228325 1.368081 0.274200 0.432142 1.531444 0.606262 0.276090 0.000000 0.000000 0.000000 1.533718 0.600987 0.273806 2.333150 -0.807860 -0.344317 -5.803872 -4.814683 1.134472 0.000000 0.000000 0.000000 0.675229 -3.107451 -11.968063 0.000000 0.000000 0.000000 6.895876 -17.408918 -64.965604 0.000006 -21.235275 0.000004 -11.562166 -8.704122 7.746394 -5.002442 2.936994 4.426647 15.317505 25.259597 5.072960 -14.331661 -9.984860 7.786040 0.000000 -0.000000 0.000001 -1.570722 0.351086 -38.821159 1.555523 3.976542 -42.715002 0.000002 0.000000 -0.000001 -1.061522 3.536016 -43.793681 1.991630 4.401017 -48.680128 0.000000 -0.000000 -0.000000 -1.391744 4.262032 -53.784410 2.370267 4.705980 -53.446883 -0.000002 0.000001 0.000000 0.125760 5.897894 -59.090897 2.390676 4.720992 -53.695160 -0.000001 0.000002 -0.000000 0.473370 8.054809 13.883103 0.000000 0.000000 0.000000 13.604486 8.269874 60.830860 0.000002 32.298961 0.000002 -9.651786 5.375921 -9.192758 -3.762561 2.514891 -13.410414 14.089894 -30.154619 1.745234 -9.526764 7.265931 -15.719043 0.000000 -0.000000 -0.000003 -0.560422 6.702906 20.635238 1.816310 -3.691857 52.380000 -0.000000 -0.000001 -0.000001 -1.907309 -0.903913 34.752105 1.406567 -3.336874 45.703299 0.000002 -0.000001 -0.000002 -1.442351 -2.098824 39.124601 1.864074 -3.728118 53.118487 0.000004 -0.000000 0.000000 -0.565017 -3.792878 44.974613 1.150900 -3.067085 41.128483 0.000001 0.000001 0.000002 -12.823048 15.312856 10.388050 13.944889 -9.800096 -0.129393 -4.329548 -11.333818 -6.911406 1.669326 -0.000000 0.000000 0.000000 -0.000000 0.000000 -7.178431 -8.711511 -9.183917 15.256483 -0.167072 3.456452 -8.248683 -2.318905 4.337958 -0.144625 0.000003 -0.000001 0.000000 0.000000 0.000000 
-236.988739 100.890648 -11.354868 -0.173607 -1.920129 0.236246 1.375671 0.286738 0.433344 1.534144 0.618928 0.275135 0.000000 0.000000 0.000000 1.536388 0.613600 0.273539 2.245560 -0.804275 -0.383274 -6.001869 -4.864041 1.193530 -0.000000 -0.000000 -0.000000 0.674980 -2.709238 -11.957097 0.000000 0.000000 0.000000 6.658606 -17.652585 -64.530050 0.000001 -22.655386 0.000017 -12.066278 -8.706399 7.052881 -5.209593 2.820752 4.307811 15.466338 25.076353 4.687916 -14.415309 -10.690220 7.638536 -0.000000 -0.000001 -0.000004 -1.685200 0.430438 -39.850944 1.612443 4.037183 -43.529810 0.000002 -0.000000 -0.000001 -1.134791 3.553191 -44.707806 2.072242 4.470389 -49.722496 0.000001 -0.000001 -0.000001 -1.507011 4.293130 -54.873135 2.460532 4.771352 -54.539344 -0.000001 0.000002 -0.000001 0.080650 5.930751 -60.154938 2.493374 4.794492 -54.933248 -0.000001 0.000000 -0.000001 0.480196 7.824794 13.908639 0.000000 0.000000 0.000000 13.803056 8.765851 60.021257 0.000008 33.727440 -0.000015 -10.033474 6.711228 -10.260470 -3.896469 2.725662 -13.646568 14.178154 -30.041798 2.323886 -9.321203 7.870332 -15.885174 0.000000 0.000000 0.000004 -0.692426 6.904165 20.983518 1.894300 -3.750540 53.581553 0.000001 0.000002 0.000002 -2.021849 -0.828643 35.342206 1.460750 -3.388818 46.627062 -0.000001 0.000000 -0.000000 -1.540407 -2.040403 39.671255 1.934559 -3.779870 54.194911 0.000001 -0.000001 0.000000 -0.628024 -3.755677 45.514844 1.190965 -3.112308 41.871993 0.000002 -0.000000 0.000000 -12.933522 15.303635 10.389910 14.073919 -9.802404 -0.154684 -4.416274 -11.311877 -6.811299 1.731775 -0.000006 0.000001 0.000000 -0.000000 0.000000 -7.295377 -8.727729 -9.228368 15.344565 -0.110630 3.460835 -8.243049 -2.322923 4.351218 -0.157719 0.000001 -0.000000 -0.000000 0.000001 0.000000 
-236.955002 100.876625 -11.357521 -0.124097 -1.943565 0.247785 1.383909 0.306241 0.433471 1.538205 0.645311 0.273751 0.000000 0.000000 0.000000 1.540386 0.640241 0.273648 2.156836 -0.796674 -0.417830 -6.316919 -4.882721 1.239700 -0.000000 -0.000000 -0.000000 0.681320 -2.265466 -11.771150 0.000000 0.000000 0.000000 6.596420 -17.554462 -64.079947 -0.000003 -25.201796 -0.000003 -13.999452 -9.246313 6.718643 -5.417910 2.703401 4.187587 15.615091 24.890872 4.301392 -14.506096 -11.399968 7.478246 0.000001 0.000001 -0.000002 -1.799454 0.513329 -40.883774 1.670407 4.097192 -44.347083 -0.000002 -0.000001 -0.000001 -1.209448 3.573138 -45.624561 2.154385 4.538513 -50.768383 -0.000001 0.000001 0.000001 -1.623988 4.329484 -55.964934 2.552317 4.835194 -55.635565 0.000001 0.000000 -0.000000 0.034382 5.966722 -61.222230 2.597991 4.866006 -56.175792 -0.000001 0.000000 0.000001 0.498076 7.530339 13.753905 0.000000 0.000000 0.000000 13.999233 9.313927 59.251973 0.000006 35.758701 -0.000020 -11.394866 7.937359 -11.635050 -4.030881 2.937720 -13.883307 14.266049 -29.927403 2.905303 -9.115646 8.479038 -16.051686 0.000000 0.000000 -0.000001 -0.827114 7.105282 21.332732 1.973745 -3.807763 54.787147 0.000001 -0.000000 0.000000 -2.138903 -0.755404 35.933721 1.515935 -3.440025 47.553819 -0.000001 -0.000000 0.000003 -1.640361 -1.983681 40.219057 2.006246 -3.830438 55.274986 0.000002 -0.000000 0.000000 -0.692662 -3.719684 46.056218 1.231749 -3.157147 42.617624 -0.000000 0.000000 0.000001 -13.030891 15.295106 10.379914 14.179025 -9.803565 -0.178049 -4.501352 -11.274142 -6.731327 1.732067 -0.000002 -0.000000 0.000000 0.000000 -0.000000 -7.410433 -8.728871 -9.267981 15.419765 -0.063054 3.450767 -8.257619 -2.329825 4.372948 -0.173515 0.000008 0.000001 -0.000000 0.000001 0.000000 
-236.914124 100.879898 -11.375690 -0.089904 -1.972225 0.264755 1.392857 0.327716 0.432051 1.546219 0.684569 0.271725 0.000000 0.000000 0.000000 1.548310 0.680139 0.273104 2.096727 -0.783602 -0.438585 -6.737987 -4.857628 1.284561 0.000000 0.000000 0.000000 0.693741 -1.794103 -11.392937 0.000000 0.000000 0.000000 6.723550 -17.114374 -63.661154 -0.000004 -28.975158 0.000006 -17.456201 -10.025061 6.999989 -5.626877 2.585259 4.066289 15.763464 24.703722 3.914368 -14.604114 -12.112184 7.305144 -0.000000 0.000001 0.000003 -1.913135 0.599619 -41.917253 1.729283 4.156400 -45.164913 0.000000 -0.000000 -0.000000 -1.285242 3.595850 -46.541718 2.237848 4.605183 -51.815458 0.000004 0.000000 0.000001 -1.742264 4.371105 -57.057297 2.645420 4.897326 -56.733061 -0.000000 -0.000002 0.000001 -0.012834 6.005809 -62.290232 2.704289 4.935313 -57.419925 0.000001 0.000002 0.000000 0.524892 7.233767 13.397725 0.000000 0.000000 0.000000 14.296294 9.848245 58.493979 -0.000016 38.634521 0.000031 -13.750259 8.760568 -13.216030 -4.165475 3.150418 -14.120048 14.353439 -29.811809 3.488108 -8.910585 9.090573 -16.218199 -0.000001 0.000002 0.000004 -0.964245 7.305727 21.682255 2.054491 -3.863345 55.993990 -0.000000 -0.000000 -0.000002 -2.258180 -0.684392 36.525318 1.572019 -3.490393 48.481342 -0.000001 -0.000000 -0.000001 -1.741982 -1.928817 40.766862 2.078936 -3.879706 56.356202 -0.000001 0.000000 0.000000 -0.758713 -3.684956 46.597487 1.273130 -3.201464 43.363758 -0.000002 0.000000 0.000001 -13.076003 15.285036 10.344087 14.219539 -9.802547 -0.190820 -4.552765 -11.223471 -6.696963 1.695362 0.000004 0.000000 0.000000 -0.000000 0.000000 -7.489179 -8.727543 -9.302800 15.454358 -0.023190 3.427740 -8.294467 -2.338724 4.400004 -0.180892 0.000002 0.000000 -0.000000 -0.000001 -0.000000 
-236.866470 100.904602 -11.414189 -0.075952 -2.000770 0.287629 1.396443 0.350548 0.430941 1.554679 0.738964 0.268838 0.000000 0.000000 0.000000 1.556646 0.735504 0.270877 2.088094 -0.765862 -0.440383 -7.242033 -4.795051 1.349244 0.000000 -0.000000 0.000000 0.710153 -1.301569 -10.844530 0.000000 0.000000 0.000000 6.960868 -16.387012 -63.356869 -0.000000 -33.923238 -0.000008 -21.736114 -10.820273 7.963056 -5.835980 2.466725 3.944252 15.911117 24.515393 3.527751 -14.709330 -12.824917 7.119303 0.000001 -0.000002 0.000001 -2.025914 0.689094 -42.949008 1.788883 4.214661 -45.981557 -0.000001 -0.000001 -0.000001 -1.361970 3.621339 -47.457329 2.322412 4.670237 -52.861235 0.000000 -0.000001 0.000000 -1.861445 4.417954 -58.147716 2.739581 4.957596 -57.829231 -0.000002 -0.000000 0.000001 -0.060771 6.047939 -63.356514 2.811939 5.002209 -58.662760 0.000002 -0.000001 -0.000001 0.556437 6.996133 12.875100 0.000000 0.000000 0.000000 14.714758 10.245551 57.695496 -0.000001 42.448608 0.000009 -16.794199 9.166264 -14.904352 -4.299985 3.363217 -14.356212 14.440217 -29.695484 4.070898 -8.706489 9.703412 -16.384379 -0.000001 -0.000000 0.000001 -1.103485 7.505032 22.031226 2.136271 -3.917154 57.199337 -0.000001 0.000001 -0.000001 -2.379350 -0.615796 37.115634 1.628792 -3.539754 49.407615 0.000005 0.000001 0.000001 -1.845011 -1.875914 41.313420 2.152445 -3.927524 57.436037 -0.000001 -0.000001 0.000000 -0.826018 -3.651643 47.137461 1.315003 -3.245176 44.108651 -0.000001 -0.000000 0.000000 -13.055731 15.266735 10.276485 14.172714 -9.798729 -0.188800 -4.544267 -11.159901 -6.727086 1.670481 0.000000 0.000001 0.000000 -0.000000 -0.000000 -7.518735 -8.725747 -9.330748 15.429512 0.013740 3.392738 -8.345885 -2.348102 4.429054 -0.164420 0.000003 -0.000000 -0.000000 0.000000 0.000000 
